<svg xmlns="http://www.w3.org/2000/svg" viewBox="0 0 87 87"><g id="Layer_2" data-name="Layer 2"><g id="Layer_1-2" data-name="Layer 1"><path d="M43.5,0A43.5,43.5,0,1,0,87,43.5,43.51,43.51,0,0,0,43.5,0Zm0,84A40.5,40.5,0,1,1,84,43.5,40.5,40.5,0,0,1,43.5,84Z"/><path d="M36.38,43.5,57.69,22.19a5.52,5.52,0,0,0-7.8-7.81l-27,27a5.41,5.41,0,0,0-1,1.46l-.32.65.32.65a5.68,5.68,0,0,0,1,1.48l27,27a5.52,5.52,0,0,0,7.8-7.81Zm19.2,27a2.59,2.59,0,0,1-3.57,0l-27-27h0l27-27a2.59,2.59,0,0,1,3.57,0,2.54,2.54,0,0,1,0,3.57L32.14,43.5,55.57,66.93a2.53,2.53,0,0,1,0,3.56Z"/></g></g></svg>