<svg xmlns="http://www.w3.org/2000/svg" viewBox="0 0 665.33 580.58"><defs><style>.cls-1{fill:#6c63ff;}.cls-2{fill:#feb8b8;}.cls-3{fill:#3f3d56;}</style></defs><g id="Layer_2" data-name="Layer 2"><g id="a912c975-66fe-4859-a220-a6b1f8a45b45"><path id="aa45fc53-812a-4d29-b97e-7f1282d3d680" class="cls-1" d="M274.46,281.09l175-35,3.8,96-13.7,108.76,9.9,129.71H260.72l4.92-150.49s-42.12-59.42-17.31-119.31Z"/><path id="ab28f9f1-3872-4572-9db3-fdc0c2b56930" class="cls-2" d="M664.67,53.33a28.18,28.18,0,0,1-26.5,34.19L470.36,282.12l-39-47.35L608.57,58.38a28.36,28.36,0,0,1,56.11-5Z"/><path id="e38d1f50-71d2-4502-a947-37a79b1baefe" class="cls-1" d="M506.9,260.88a12.63,12.63,0,0,1-4.19,9.67L455.53,313a35.13,35.13,0,0,1-54.3-44.6l32.94-54.51a12.65,12.65,0,0,1,17.37-4.29,12.22,12.22,0,0,1,1.51,1.08l49.26,40.7a12.66,12.66,0,0,1,4.59,9.48Z"/><path id="a4438e3b-f1f0-4fb4-883b-23c73ca92a93" class="cls-2" d="M.06,510.64a28.21,28.21,0,0,1,26.36-29.95,29.46,29.46,0,0,1,5,.12L226.51,313.6,258,366.27,56.29,514.07A28.36,28.36,0,0,1,.06,510.64Z"/><circle id="b8db2fb6-f3e1-4f6c-8969-65ed1b7fc810" class="cls-3" cx="355.78" cy="126.81" r="71.24"/><path id="a8ffa943-ba12-47ea-a3ce-887fe10517d1" class="cls-1" d="M187.19,329.11a12.65,12.65,0,0,1,5.59-8.93l53-34.91a35.13,35.13,0,1,1,47.32,51.94l0,0-.3.27-40.76,49a12.64,12.64,0,0,1-17.81,1.63,11.64,11.64,0,0,1-1.34-1.29L190.3,339.18a12.64,12.64,0,0,1-3.11-10.07Z"/><circle id="b8556b8d-ea4d-44f1-881d-63b03cbd5c82" class="cls-2" cx="349.04" cy="171.79" r="64.5"/><path id="b12de61e-1204-4bc3-8fe3-5af6696e169c" class="cls-3" d="M393,0A39,39,0,0,1,370.5,15.45c-15.72,4.2-.13,27.82-.13,27.82s-5.67-8.59,2.5-17.68S394.2,10.28,393,0Z"/><circle id="b3381070-dd63-42ff-a7f2-d7b052b00dac" class="cls-3" cx="367.58" cy="48.93" r="19.85"/><path id="a59edb5f-8afb-4734-b526-6942bc6c3436" class="cls-1" d="M397.25,65.57c-16.18-6.12-43.13-9.22-57-7.1l1.9-13.88c13.33,6.89,40.16,10.12,57,7.1Z"/><path id="a799e502-b5ec-41bb-ac2d-d7f36e72d183" class="cls-3" d="M359.86,68.17s-20.29,33.74-67.46,46.37-.38,83.51-.38,83.51-17-25.77,7.52-53.07S363.57,99,359.86,68.17Z"/><path id="b966a1bb-b26c-4365-9b42-58e2bab2452b" class="cls-3" d="M367.54,68.49s19.49,46.34,40.88,50.73,19.77,77.61-13.68,88.59c0,0,24.4-42.93,3.54-71.72S364.26,84.54,367.54,68.49Z"/></g></g></svg>