<svg xmlns="http://www.w3.org/2000/svg" xmlns:xlink="http://www.w3.org/1999/xlink" viewBox="0 0 336.28 336.28"><defs><style>.cls-1{fill:none;}.cls-2,.cls-4{fill:#859095;}.cls-3{fill:#010101;}.cls-26,.cls-4{fill-rule:evenodd;}.cls-5{clip-path:url(#clip-path);}.cls-6{fill:url(#linear-gradient);}.cls-7{fill:url(#linear-gradient-2);}.cls-8{fill:url(#linear-gradient-3);}.cls-9{fill:url(#linear-gradient-4);}.cls-10{fill:url(#linear-gradient-5);}.cls-11{fill:url(#linear-gradient-6);}.cls-12{fill:url(#linear-gradient-7);}.cls-13{fill:url(#linear-gradient-8);}.cls-14{fill:url(#linear-gradient-9);}.cls-15{clip-path:url(#clip-path-2);}.cls-16{fill:url(#linear-gradient-10);}.cls-17{fill:url(#linear-gradient-11);}.cls-18{fill:url(#linear-gradient-12);}.cls-19{fill:url(#linear-gradient-13);}.cls-20{fill:url(#linear-gradient-14);}.cls-21{fill:url(#linear-gradient-15);}.cls-22{fill:url(#linear-gradient-16);}.cls-23{fill:url(#linear-gradient-17);}.cls-24{fill:url(#linear-gradient-18);}.cls-25{fill:#e6e7e8;fill-opacity:0.4;stroke:#f6f5c1;stroke-miterlimit:10;stroke-width:8px;}.cls-26{fill:#ecf5fc;opacity:0.54;}</style><clipPath id="clip-path"><circle class="cls-1" cx="90.56" cy="161.32" r="57.31"/></clipPath><linearGradient id="linear-gradient" x1="103.93" y1="125.67" x2="46.51" y2="242.55" gradientUnits="userSpaceOnUse"><stop offset="0" stop-color="#1d1753"/><stop offset="1" stop-color="#101137"/></linearGradient><linearGradient id="linear-gradient-2" x1="129.01" y1="137.99" x2="71.59" y2="254.87" xlink:href="#linear-gradient"/><linearGradient id="linear-gradient-3" x1="242.42" y1="361.09" x2="268.12" y2="361.09" gradientTransform="translate(-218.41 -183.84) rotate(-11.71)" gradientUnits="userSpaceOnUse"><stop offset="0" stop-color="#f8b2b1"/><stop offset="1" stop-color="#f5928f"/></linearGradient><linearGradient id="linear-gradient-4" x1="79.25" y1="113.55" x2="21.83" y2="230.43" xlink:href="#linear-gradient"/><linearGradient id="linear-gradient-5" x1="166.57" y1="454.93" x2="185.77" y2="454.93" xlink:href="#linear-gradient-3"/><linearGradient id="linear-gradient-6" x1="143.15" y1="144.94" x2="85.72" y2="261.82" xlink:href="#linear-gradient"/><linearGradient id="linear-gradient-7" x1="275.21" y1="352.47" x2="253.29" y2="327.25" xlink:href="#linear-gradient-3"/><linearGradient id="linear-gradient-8" x1="168.55" y1="29.48" x2="122.81" y2="73.69" xlink:href="#linear-gradient"/><linearGradient id="linear-gradient-9" x1="268.57" y1="358.24" x2="246.64" y2="333.02" xlink:href="#linear-gradient-3"/><clipPath id="clip-path-2"><path class="cls-1" d="M230.47,220.18c-26.31,5.58-54.26-5.81-69.91-25.54-6.36-8-76.06-35-78.32-45.74-7.85-37,78.42-87.53,115.43-95.37S285.12,94.9,293,131.91c3.5,16.51-15.67,42.66-23.09,56.44C260.66,205.46,251,215.83,230.47,220.18Z"/></clipPath><linearGradient id="linear-gradient-10" x1="168.12" y1="69.95" x2="307.44" y2="177.48" xlink:href="#linear-gradient"/><linearGradient id="linear-gradient-11" x1="127.45" y1="192.17" x2="161.08" y2="174.75" gradientTransform="matrix(1, 0, 0, 1, 0, 0)" xlink:href="#linear-gradient-3"/><linearGradient id="linear-gradient-12" x1="335.52" y1="196.25" x2="224.25" y2="149.03" gradientUnits="userSpaceOnUse"><stop offset="0" stop-color="#f5928f"/><stop offset="1" stop-color="#f37064"/></linearGradient><linearGradient id="linear-gradient-13" x1="310.85" y1="254.38" x2="199.58" y2="207.16" xlink:href="#linear-gradient-12"/><linearGradient id="linear-gradient-14" x1="208.72" y1="152.66" x2="212.72" y2="124.24" gradientTransform="matrix(1, 0, 0, 1, 0, 0)" xlink:href="#linear-gradient-3"/><linearGradient id="linear-gradient-15" x1="190.36" y1="91.75" x2="227.8" y2="134.79" gradientTransform="matrix(1, 0, 0, 1, 0, 0)" xlink:href="#linear-gradient-3"/><linearGradient id="linear-gradient-16" x1="174.49" y1="61.71" x2="313.81" y2="169.23" xlink:href="#linear-gradient"/><linearGradient id="linear-gradient-17" x1="199.71" y1="83.62" x2="237.15" y2="126.66" gradientTransform="matrix(1, 0, 0, 1, 0, 0)" xlink:href="#linear-gradient-3"/><linearGradient id="linear-gradient-18" x1="196.72" y1="212.15" x2="296.41" y2="79.43" gradientTransform="matrix(1, 0, 0, 1, 0, 0)" xlink:href="#linear-gradient-3"/></defs><g id="Layer_2" data-name="Layer 2"><g id="Layer_1-2" data-name="Layer 1"><circle class="cls-2" cx="168.14" cy="168.14" r="168.14"/><path class="cls-3" d="M77.28,193.43a39.22,39.22,0,0,1,27.2,10.8,35.86,35.86,0,0,1,0,52.3,39.65,39.65,0,0,1-54.4,0,35.84,35.84,0,0,1,0-52.3,39.2,39.2,0,0,1,27.2-10.8Zm24.34,13.78a35.61,35.61,0,0,0-48.69,0,31.79,31.79,0,0,0,0,46.33,35.59,35.59,0,0,0,48.69,0,31.79,31.79,0,0,0,0-46.33Z"/><path class="cls-3" d="M77.28,210.65a20.92,20.92,0,0,1,14.47,5.75,19.17,19.17,0,0,1,0,27.95,21.09,21.09,0,0,1-28.95,0,19.17,19.17,0,0,1,0-27.95,20.93,20.93,0,0,1,14.48-5.75Zm11.61,8.74a17,17,0,0,0-23.23,0,15.08,15.08,0,0,0,0,22,17,17,0,0,0,23.23,0,15.08,15.08,0,0,0,0-22Z"/><path class="cls-3" d="M79.35,195.51a2.08,2.08,0,1,0-4.15,0v8.73a2.08,2.08,0,1,0,4.15,0Z"/><path class="cls-3" d="M96.51,201.22a2.07,2.07,0,1,0-3.59-2.08l-4.37,7.56a2.07,2.07,0,1,0,3.59,2.08Z"/><path class="cls-3" d="M108.51,214.74a2.07,2.07,0,1,0-2.08-3.59l-7.56,4.36A2.07,2.07,0,0,0,101,219.1Z"/><path class="cls-3" d="M112.15,232.46a2.08,2.08,0,0,0,0-4.16h-8.73a2.08,2.08,0,1,0,0,4.16Z"/><path class="cls-3" d="M106.43,249.61a2.07,2.07,0,1,0,2.08-3.59L101,241.65a2.07,2.07,0,0,0-2.08,3.59Z"/><path class="cls-3" d="M92.92,261.62a2.07,2.07,0,0,0,3.59-2.08L92.14,252a2.07,2.07,0,1,0-3.59,2.08Z"/><path class="cls-3" d="M58.05,259.54a2.07,2.07,0,1,0,3.58,2.08L66,254.05A2.07,2.07,0,1,0,62.41,252Z"/><path class="cls-3" d="M46,246a2.07,2.07,0,1,0,2.08,3.59l7.56-4.37a2.07,2.07,0,0,0-2.08-3.59Z"/><path class="cls-3" d="M48.12,211.15A2.07,2.07,0,1,0,46,214.74l7.56,4.36a2.07,2.07,0,0,0,2.08-3.59Z"/><path class="cls-3" d="M61.64,199.14a2.07,2.07,0,1,0-3.59,2.08l4.36,7.56A2.07,2.07,0,1,0,66,206.7Z"/><path class="cls-3" d="M79.35,213a2.08,2.08,0,1,0-4.15,0v4.36a2.08,2.08,0,1,0,4.15,0Z"/><path class="cls-3" d="M87.78,216.32a2.07,2.07,0,0,0-3.59-2.06L82,218a2.07,2.07,0,0,0,3.59,2.06Z"/><path class="cls-3" d="M93.39,223.46a2.07,2.07,0,1,0-2.06-3.59l-3.78,2.18a2.07,2.07,0,0,0,2.06,3.59Z"/><path class="cls-3" d="M94.69,232.46a2.08,2.08,0,0,0,0-4.16H90.33a2.08,2.08,0,0,0,0,4.16Z"/><path class="cls-3" d="M91.32,240.88a2.07,2.07,0,1,0,2.08-3.59l-3.78-2.18a2.07,2.07,0,0,0-2.08,3.59Z"/><path class="cls-3" d="M84.19,246.5a2.07,2.07,0,1,0,3.59-2.08l-2.18-3.77A2.07,2.07,0,1,0,82,242.73Z"/><path class="cls-3" d="M75.2,247.8a2.08,2.08,0,1,0,4.15,0v-4.37a2.08,2.08,0,0,0-4.15,0Z"/><path class="cls-3" d="M66.77,244.43a2.07,2.07,0,1,0,3.59,2.06l2.18-3.77A2.07,2.07,0,0,0,69,240.65Z"/><path class="cls-3" d="M61.15,237.29a2.07,2.07,0,0,0,2.08,3.59L67,238.7a2.07,2.07,0,0,0-2.08-3.59Z"/><path class="cls-3" d="M59.86,228.3a2.08,2.08,0,0,0,0,4.16h4.36a2.08,2.08,0,0,0,0-4.16Z"/><path class="cls-3" d="M63.22,219.87a2.07,2.07,0,0,0-2.06,3.59l3.78,2.18A2.07,2.07,0,0,0,67,222.05Z"/><path class="cls-3" d="M70.36,214.26a2.07,2.07,0,0,0-3.59,2.06L69,220.1A2.07,2.07,0,0,0,72.54,218Z"/><path class="cls-4" d="M62.28,225.38a19.33,19.33,0,0,0-1.23,4.77h3.17a2.39,2.39,0,0,1,0,4.74H61.05a19.14,19.14,0,0,0,1.23,4.76l2.65-1.74a1.93,1.93,0,0,1,2.83.86A2.55,2.55,0,0,1,67,242l-2.5,1.63c.36.49.75,1,1.15,1.4a17.75,17.75,0,0,0,2,1.82L69,244.22a1.94,1.94,0,0,1,2.83-.87,2.54,2.54,0,0,1,.76,3.22L71.29,249a15.3,15.3,0,0,0,3.91,1.07v-2.71a2.09,2.09,0,1,1,4.15,0v2.71a15.12,15.12,0,0,0,3.9-1.07L82,246.58a2.54,2.54,0,0,1,.75-3.23,2,2,0,0,1,2.84.86l1.33,2.63a16.75,16.75,0,0,0,2-1.81c.4-.45.79-.91,1.15-1.4L87.54,242a2.55,2.55,0,0,1-.75-3.23,1.93,1.93,0,0,1,2.83-.86l2.65,1.74a19.14,19.14,0,0,0,1.23-4.76H90.33a2.39,2.39,0,0,1,0-4.74H93.5a19.33,19.33,0,0,0-1.23-4.77l-2.66,1.75a1.93,1.93,0,0,1-2.82-.87,2.54,2.54,0,0,1,.76-3.22L90,221.41a17.48,17.48,0,0,0-1.15-1.4,16.84,16.84,0,0,0-2-1.82l-1.33,2.63a1.94,1.94,0,0,1-2.83.87,2.54,2.54,0,0,1-.76-3.22L83.26,216a15.2,15.2,0,0,0-3.91-1.08v2.72a2.09,2.09,0,1,1-4.15,0v-2.72A15.32,15.32,0,0,0,71.29,216l1.25,2.46a2.54,2.54,0,0,1-.76,3.22,1.94,1.94,0,0,1-2.83-.87l-1.33-2.63a16.84,16.84,0,0,0-2,1.82,17.48,17.48,0,0,0-1.15,1.4L67,223a2.54,2.54,0,0,1,.76,3.22,1.93,1.93,0,0,1-2.82.87Z"/><g class="cls-5"><path class="cls-6" d="M121.36,159.74c4.63-14.73,10.53-22.6,10.53-22.6-35.39-19.88-61.18-13.41-61.18-13.41A112.23,112.23,0,0,0,63,158.57C82.39,157.33,101.92,159.79,121.36,159.74Z"/><path class="cls-7" d="M101.48,221a4.82,4.82,0,0,1-1.34-.2c-6,0-12.21.2-18.06-.81l-1,.11v0H81a48.72,48.72,0,0,1-7.44.26c.65,1.54,1.05,2.36,1.05,2.36,6.4,2.86,18.79.73,28.6-1.74Z"/></g><path class="cls-8" d="M104.2,104,93.8,123.12A4.13,4.13,0,0,0,95,128.39c2.84,2.13,7.61,4.66,12.8,2.91a5.58,5.58,0,0,0,3.54-3.65l5.23-16.77Z"/><path class="cls-9" d="M53.69,156.68A14.19,14.19,0,0,0,57.21,159c2.29-.24,4.58-.41,6.87-.54A39.27,39.27,0,0,1,75.21,146l-4.5-22.24S53.62,135.33,47,156.59A4.93,4.93,0,0,1,53.69,156.68Z"/><path class="cls-10" d="M51,223.77c-.59,0-1.18.1-1.77.16,1.67,1.55,3.32,2.64,6.08,1.16a1.06,1.06,0,0,0,.53-1.22C54.22,223.91,52.61,223.87,51,223.77Z"/><path class="cls-11" d="M123.06,159.74c10.37-.12,20.66-.2,31,.23a95.47,95.47,0,0,1-22.15-22.83l-12.37,18.67c1.11,1.39,2.24,2.69,3.4,3.93A.66.66,0,0,1,123.06,159.74Z"/><path class="cls-12" d="M121.48,86.94s7.77,23.63-1.92,28.82-19.1-17.33-19.1-17.33S102.26,74.23,121.48,86.94Z"/><path class="cls-13" d="M104.2,104c-.28.52-5,4.81-9.19,0s-1.9-9,2.93-10.23c0,0-3.35-1.32-1.68-4.24a3.1,3.1,0,0,1,4.35-1.37s-2.09-18.6,14-16.88,14.43,11,13.6,13.86-7.85,7.63-17,4.49a4,4,0,0,1,.44,5.29c-2,3.09-8.35,5.08-8.35,5.08Z"/><path class="cls-14" d="M107.66,103.85s-2.44-7.3-6-4.31c-4.56,3.84,4.26,6.91,4.26,6.91Z"/><g class="cls-15"><path class="cls-16" d="M196.54,116.07c-9.71,22.11,7.12,27.13,7.12,27.13,1.31,5,3.89,8.17,7.07,10.08,7.43,0,14.86.24,22.28.68a50.23,50.23,0,0,0,5.59-2c13.74,7.31,30.1-4,31.19-13.62s-7.58-11.21-7.58-11.21c8.52-5.5,14.3-18.81-1-35.48s-35.08-1.61-35.08-1.61c2.72-11.07-6.19-13.82-6.19-13.82-3.78-10.78-14.83-5.51-14.83-5.51-25.51,1.43-14.78,20.94-14.78,20.94S206.25,94,196.54,116.07Z"/><path class="cls-17" d="M207.42,153.27l-1.28-4.37s-.1,1.69-.43,4.37Z"/><path class="cls-18" d="M242.51,154.65c-.14-3.09-.21-5.76-.25-7.84a8.59,8.59,0,0,0-4.76-7.52c-16.87-8.4-30.08-1.68-34.47,1.16a5.16,5.16,0,0,0-2.1,2.76c-.65,2-1.78,5.69-2.91,10.14A431.66,431.66,0,0,1,242.51,154.65Z"/><path class="cls-19" d="M237.27,222.31a5.15,5.15,0,0,1-2.42.73c-3.35.19-6.71.33-10.06.45,2,3.34,3.21,5.5,3.21,5.5,14,5.91,23-2.62,27.06-8.06C249.13,221.45,243.2,221.94,237.27,222.31Z"/><path class="cls-20" d="M208.69,110.46s12.95,18,16.06,26.73a15.8,15.8,0,0,1-16,2s-6.61-19.84-8.78-23.1Z"/><path class="cls-21" d="M190.86,85.94s-11,31.4,2.28,35.72,21.16-18,21.16-18,.17-15.48-5.74-19S190.86,85.94,190.86,85.94Z"/><path class="cls-22" d="M197.65,77.22s-8,4.51-8,8.72,14.27,3.92,18,3l7.54,14.71s4.61-17.24-1.37-24.68S197.65,77.22,197.65,77.22Z"/><path class="cls-23" d="M210.14,102.79s4.79-10.47,9.26-5.85-3.73,11.45-7.76,9.72Z"/><path class="cls-24" d="M250.51,155.45c-3.54-8.23-8.35-14.48-13.3-11.34-3.21,2-3.76,5.62-3.27,9.9Q242.24,154.52,250.51,155.45Z"/></g><path class="cls-25" d="M34.11,157.52H23.87C-3.56,64.61,124.76,25.49,169,25.28c44.25.21,172.57,39.33,145.14,132.24h-280"/><path class="cls-26" d="M52.93,207.21a33.76,33.76,0,0,0-3.9,4.47l6.65,3.83a2.07,2.07,0,0,1-2.08,3.59l-6.79-3.92A31.42,31.42,0,0,0,43,228.3h8.16a2.08,2.08,0,0,1,0,4.16H43a31.38,31.38,0,0,0,3.83,13.11l6.79-3.92a2.07,2.07,0,0,1,2.08,3.59L49,249.08a33.06,33.06,0,0,0,3.9,4.46,34,34,0,0,0,6,4.55L62.41,252A2.07,2.07,0,1,1,66,254.05l-3.45,6a35.63,35.63,0,0,0,12.65,3.09v-6.59a2.08,2.08,0,1,1,4.15,0v6.59A35.42,35.42,0,0,0,92,260l-3.45-6A2.07,2.07,0,1,1,92.14,252l3.53,6.11a34,34,0,0,0,6-4.55,33.06,33.06,0,0,0,3.9-4.46l-6.65-3.84a2.07,2.07,0,0,1,2.08-3.59l6.79,3.92a31.23,31.23,0,0,0,3.83-13.11h-8.15a2.08,2.08,0,1,1,0-4.16h8.15a31.28,31.28,0,0,0-3.83-13.12L101,219.1a2.07,2.07,0,0,1-2.08-3.59l6.65-3.83a33.76,33.76,0,0,0-3.9-4.47,35,35,0,0,0-6-4.55l-3.53,6.12a2.07,2.07,0,1,1-3.59-2.08l3.45-6a35.63,35.63,0,0,0-12.65-3.09v6.6a2.08,2.08,0,1,1-4.15,0v-6.6a35.63,35.63,0,0,0-12.65,3.09l3.45,6a2.07,2.07,0,1,1-3.59,2.08l-3.53-6.12a35,35,0,0,0-6,4.55Zm24.35,3.44a20.92,20.92,0,0,1,14.47,5.75,19.17,19.17,0,0,1,0,27.95,21.09,21.09,0,0,1-28.95,0,19.17,19.17,0,0,1,0-27.95A20.93,20.93,0,0,1,77.28,210.65Z"/></g></g></svg>