<svg xmlns="http://www.w3.org/2000/svg" viewBox="0 0 598.28 422.92"><defs><style>.cls-1{fill:#ccc;}.cls-2{fill:#e6e6e6;}.cls-3{fill:#3f3d56;}.cls-4{fill:#fff;}.cls-5{fill:#ffb6b6;}.cls-6{fill:#6c63ff;}.cls-7{fill:#e4e4e4;}.cls-8{fill:#2f2e41;}</style></defs><g id="Layer_2" data-name="Layer 2"><g id="b19d21a7-7bc0-44bd-ab2a-ad7473c6bec7"><path class="cls-1" d="M583.78,175.26H9.2a9.2,9.2,0,1,0,0,18.4H25.47V413.72a9.2,9.2,0,0,0,18.4,0L44,193.66H505.17l42.52,220.06a9.2,9.2,0,1,0,18.39,0l2.68-220.06h15a9.2,9.2,0,0,0,0-18.4Z"/><path class="cls-2" d="M325,174.37l-4.69-2-3.23-23.54H274.23l-3.5,23.44-4.2,2.1a1,1,0,0,0-.44,1.34,1,1,0,0,0,.89.55h57.66a1,1,0,0,0,.39-1.92Z"/><path class="cls-1" d="M401.25,152H190.56a4.17,4.17,0,0,1-4.16-4.17V118.11h219v29.71A4.17,4.17,0,0,1,401.25,152Z"/><path class="cls-3" d="M405.63,132.15H186.21V5a5,5,0,0,1,5-5H400.6a5,5,0,0,1,5,5Z"/><path class="cls-4" d="M392.53,122.92H199.31a3.88,3.88,0,0,1-3.88-3.87V13.11a3.88,3.88,0,0,1,3.88-3.88H392.53a3.88,3.88,0,0,1,3.88,3.88V119.05A3.88,3.88,0,0,1,392.53,122.92Z"/><path class="cls-5" d="M341.64,160.3a11.61,11.61,0,0,1,16.41.66,10.92,10.92,0,0,1,1.25,1.62l26.14-4.65,6.69,15.19-37,6a11.68,11.68,0,0,1-13.5-18.87Z"/><path class="cls-6" d="M365.83,179.7l27.25-.34,3.45,0,55.43-.7s15.05-14.36,28.16-29.15l-1.84-13.29a54.29,54.29,0,0,0-18.2-33.61c-18.77,12.54-29.66,37.37-29.66,37.37l-34.37,8.22-3.44.83-21.35,5.1Z"/><path class="cls-7" d="M505.31,261.38H454.45c0,2.18-55.59,3.95-55.59,3.95a20,20,0,0,0-3.34,3.16,19.63,19.63,0,0,0-4.58,12.63v3.16A19.76,19.76,0,0,0,410.68,304h94.63a19.77,19.77,0,0,0,19.74-19.74v-3.16A19.77,19.77,0,0,0,505.31,261.38Z"/><rect class="cls-7" x="447.8" y="303.23" width="20.53" height="118.49"/><polygon class="cls-5" points="375.58 407.46 360.3 407.46 353.03 348.53 375.58 348.53 375.58 407.46"/><polygon class="cls-5" points="330.42 407.46 315.15 407.46 307.88 348.53 330.43 348.53 330.42 407.46"/><circle class="cls-5" cx="467.28" cy="41.64" r="26.56"/><path class="cls-8" d="M510.27,223.64s8.92,47.13-25,53.13S402.41,287,402.41,287l-22,102.57-29.53-2.64s3.93-123.46,13.59-133.12,70.71-38.59,70.71-38.59Z"/><path class="cls-8" d="M444,203.89l-14.83,14.88S322.11,236,318,260.75c-6.24,37.35-13.6,118.56-13.6,118.56l32.2-2.42,12.62-92.31,51.52-11.72,58.61-31.94Z"/><path class="cls-8" d="M492.84,25.78c-2.62-5-5.95-14.81-11.24-16.64a42.52,42.52,0,0,0-9.06-1.93l-9,3.46,4.9-3.8c-1-.06-1.91-.11-2.86-.14l-6.07,2.33,3.1-2.41c-5.65-.06-11.5.53-15.88,4-3.74,2.94-7.44,14.06-8,18.78a35.85,35.85,0,0,0,.66,13.53l1.54,1.46a19,19,0,0,0,1.2-3.84,18.23,18.23,0,0,1,8.71-11.81l.08,0c2.58-1.45,5.71-1.39,8.66-1.28l14,.51c3.38.12,7,.33,9.65,2.45A15.81,15.81,0,0,1,487.09,36c1.31,2.64,3.87,12.6,3.87,12.6s1.44-1.88,2.14-.48a48.15,48.15,0,0,0,2-11.23A22,22,0,0,0,492.84,25.78Z"/><path class="cls-5" d="M585.75,53.3a11.62,11.62,0,0,0-10.83,12.36,11.48,11.48,0,0,0,.32,2L553.88,83.44l6.41,15.31,29.85-22.67a11.68,11.68,0,0,0-4.39-22.78Z"/><path class="cls-6" d="M582.31,85.47l-53.55,59.47s-25.61-8.19-45.41-17.08l-8.9-27.33a54.16,54.16,0,0,1-2.6-19.66c27.45-7.31,59.39,19.87,59.39,19.87l40.08-31.39Z"/><path class="cls-6" d="M457.36,228c-9.56-3.31-19.44-6.72-30.09-8l-.46,0,.13-.45c11-38.73,8.28-63.5,2.87-100.72a37.59,37.59,0,0,1,21.55-39.5l.06,0,30.44-1.93h.07l22.13,6.51a15.19,15.19,0,0,1,10.87,14.83c-.24,12.24.27,25.91.81,40.37,1.2,32.46,2.45,66-4.63,87.79l0,.12-.1.07a36,36,0,0,1-23.08,8.11C478,235.15,467.82,231.65,457.36,228Z"/></g></g></svg>